<svg width="400" height="370" viewBox="0 0 400 370" fill="none" xmlns="http://www.w3.org/2000/svg">
<g clip-path="url(#clip0_87_29)">
<path d="M377.778 299.042C373.144 289.145 367.822 278.404 355.556 278.404H344.444C356.711 278.404 366.667 269.165 366.667 257.767V82.3044C366.672 79.5996 366.102 76.9202 364.989 74.4193C363.875 71.9183 362.24 69.6447 360.176 67.7283C358.113 65.8119 355.661 64.2902 352.962 63.2502C350.263 62.2101 347.369 61.672 344.444 61.6666H55.5556C43.2889 61.6666 33.3333 70.9064 33.3333 82.3044V257.767C33.3333 269.165 43.2889 278.404 55.5556 278.404H44.4444C32.1778 278.404 25.9222 288.723 22.2222 299.042L0 349.352C0 360.76 9.95556 370 22.2222 370H377.778C390.044 370 400 360.76 400 349.362L377.778 299.042Z" fill="#CCD6DD"/>
<path d="M0.0888672 350.215L0.155534 350.801L2.04442 357.913C3.7982 361.507 6.63353 364.558 10.2117 366.702C13.7898 368.845 17.9594 369.99 22.2222 370H377.778C383.514 369.983 389.022 367.914 393.147 364.226C397.272 360.539 399.696 355.518 399.911 350.215H0.0888672Z" fill="#9AAAB4"/>
<path id="screen" d="M344.444 247.438C344.444 253.142 339.478 257.756 333.333 257.756H66.6667C60.5333 257.756 55.5555 253.142 55.5555 247.438V92.6336C55.5555 86.9294 60.5333 82.3147 66.6667 82.3147H333.333C339.478 82.3147 344.444 86.9397 344.444 92.6336V247.438Z" fill="#5DADEC"/>
<path d="M365.622 319.043L357.178 296.689C354.522 291.961 350.122 288.086 343.978 288.086H56.7778C50.6444 288.086 46.7111 292.28 43.9333 298.734L36.2889 319.053C33.8555 325.179 41.2666 329.372 47.4 329.372H131.6C131.6 329.372 142.011 328.889 143.856 323.123C145.989 316.463 148.467 306.432 149 304.664C149.822 301.951 153.311 299.207 158.511 299.207H253.822C259.378 299.207 262.111 301.807 262.833 305.024C263.3 307.121 266.3 316.751 267.7 323.339C268.933 329.208 281.267 329.362 281.267 329.362H354.533C360.656 329.362 368.056 324.521 365.622 319.043Z" fill="#AEBBC1"/>
<path d="M248.611 340.328H162.156C157.989 340.328 156.178 336.803 156.778 333.391C157.378 329.989 160.767 314.962 161.033 313.215C161.289 311.458 164.078 309.361 166.856 309.361H244.8C248.1 309.361 250.244 311.036 250.911 314.387C251.567 317.748 254.267 331.253 254.478 334.336C254.689 337.43 252.6 340.328 248.611 340.328Z" fill="#9AAAB4"/>
</g>
<defs>
<clipPath id="clip0_87_29">
<rect width="400" height="370" fill="white"/>
</clipPath>
</defs>
</svg>
