<svg width="170" height="170" viewBox="0 0 170 170" fill="none" xmlns="http://www.w3.org/2000/svg">
<g clip-path="url(#clip0_30_60)">
<path d="M46.9272 93.8545C72.8444 93.8545 93.8545 72.8444 93.8545 46.9272C93.8545 21.01 72.8444 0 46.9272 0C21.01 0 0 21.01 0 46.9272C0 72.8444 21.01 93.8545 46.9272 93.8545Z" fill="#49BF4D" fill-opacity="0.6"/>
<path d="M46.9272 170C72.8444 170 93.8545 148.594 93.8545 122.187C93.8545 95.7811 72.8444 74.3746 46.9272 74.3746C21.01 74.3746 0 95.7811 0 122.187C0 148.594 21.01 170 46.9272 170Z" fill="#0BEC12" fill-opacity="0.8"/>
<path d="M123.073 93.8545C148.991 93.8545 170.001 72.8444 170.001 46.9272C170.001 21.01 148.991 0 123.073 0C97.1563 0 76.1462 21.01 76.1462 46.9272C76.1462 72.8444 97.1563 93.8545 123.073 93.8545Z" fill="#0BEC12" fill-opacity="0.8"/>
<path d="M123.073 170C148.991 170 170.001 148.594 170.001 122.187C170.001 95.7811 148.991 74.3746 123.073 74.3746C97.1563 74.3746 76.1462 95.7811 76.1462 122.187C76.1462 148.594 97.1563 170 123.073 170Z" fill="#49BF4D" fill-opacity="0.8"/>
</g>
<defs>
<clipPath id="clip0_30_60">
<rect width="170" height="170" fill="white"/>
</clipPath>
</defs>
</svg>
